<?xml version="1.0" encoding="utf-8"?>
<!-- Generator: Adobe Illustrator 25.4.0, SVG Export Plug-In . SVG Version: 6.00 Build 0)  -->
<svg version="1.1" id="Layer_1" xmlns="http://www.w3.org/2000/svg" xmlns:xlink="http://www.w3.org/1999/xlink" x="0px" y="0px"
	 viewBox="0 0 512 512" style="enable-background:new 0 0 512 512;" xml:space="preserve">
<style type="text/css">
	.st0{fill:#D53E4F;}
</style>
<path class="st0" d="M0,256C0,114.6,114.6,0,256,0s256,114.6,256,256S397.4,512,256,512S0,397.4,0,256z M176.4,176
	c-17.7,0-32,14.3-32,32s14.3,32,32,32c17.6,0,32-14.3,32-32S194,176,176.4,176z M336.4,240c17.6,0,32-14.3,32-32s-14.4-32-32-32
	c-17.7,0-32,14.3-32,32S318.7,240,336.4,240z M347.9,394.5c5.8,6.7,15.9,7.4,22.6,1.6s7.4-15.9,1.6-22.6
	c-22.2-25.6-61-53.5-115.2-53.5c-56,0-94.7,27.9-117,53.5c-5.8,6.7-5.1,16.8,1.6,22.6c6.7,5.8,16.8,5.1,22.6-1.6
	c18-20.7,48.5-42.5,92.8-42.5C299.4,352,330,373.8,347.9,394.5L347.9,394.5z"/>
</svg>
