<?xml version="1.0" encoding="utf-8"?>
<!-- Generator: Adobe Illustrator 25.4.0, SVG Export Plug-In . SVG Version: 6.00 Build 0)  -->
<svg version="1.1" id="Layer_1" xmlns="http://www.w3.org/2000/svg" xmlns:xlink="http://www.w3.org/1999/xlink" x="0px" y="0px"
	 viewBox="0 0 340.2 340.2" style="enable-background:new 0 0 340.2 340.2;" xml:space="preserve">
<style type="text/css">
	.st0{fill:#5E15D1;}
</style>
<g>
	<path class="st0" d="M317.9,4.3H215.9c-10,0-18,8.1-18,18s8.1,18,18,18l58.4,0l-95.9,95.9c-7,7-7,18.4,0,25.5c7,7,18.4,7,25.5,0
		l95.9-95.9l0,58.4c0,9.9,8.1,18,18,18c10,0,18-8,18-18V22.3C335.9,12.3,327.8,4.3,317.9,4.3z"/>
	<path class="st0" d="M136.2,178.5l-95.9,95.9l0-58.4c0-9.9-8.1-18-18-18c-10,0-18,8-18,18v101.9c0,10,8.1,18,18,18h101.9
		c10,0,18-8.1,18-18c0-10-8.1-18-18-18l-58.4,0l95.9-95.9c7-7,7-18.4,0-25.5C154.6,171.4,143.2,171.4,136.2,178.5z"/>
</g>
</svg>
