<?xml version="1.0" encoding="utf-8"?>
<!-- Generator: Adobe Illustrator 25.4.0, SVG Export Plug-In . SVG Version: 6.00 Build 0)  -->
<svg version="1.0" id="Layer_1" xmlns="http://www.w3.org/2000/svg" xmlns:xlink="http://www.w3.org/1999/xlink" x="0px" y="0px"
	 viewBox="0 0 566.9 566.9" style="enable-background:new 0 0 566.9 566.9;" xml:space="preserve">
<style type="text/css">
	.st0{fill:#5E15D1;}
</style>
<g>
	<path class="st0" d="M477.7,197.1c-14.5-33-37.8-61.7-66.5-83.5c-29.4-22.3-64.4-36.3-101-41c-8.9-1.2-17.8-1.7-26.8-1.7
		c-3.9,0-7.7,3.4-7.5,7.5c0.2,4.1,3.3,7.5,7.5,7.5c4.6,0,9.2,0.2,13.8,0.5c2.3,0.2,4.5,0.3,6.8,0.6c1.1,0.1,2.3,0.2,3.4,0.4
		c0.4,0,0.7,0.1,1.1,0.1c0.2,0,0.6,0.1,1,0.1c8.8,1.1,17.5,3,26.1,5.3c8.4,2.3,17,4.9,24.9,8.6c0,0,0,0,0,0c0.1,0,0.2,0.1,0.3,0.1
		c0.5,0.2,1,0.4,1.5,0.7c0.8,0.4,1.7,0.7,2.5,1.1c2.1,1,4.3,2,6.4,3c3.9,1.9,7.7,4,11.4,6.2c7.5,4.3,14.6,9.2,21.5,14.4c0,0,0,0,0,0
		c0.3,0.3,0.7,0.5,1,0.8c0.8,0.7,1.7,1.3,2.5,2c1.7,1.4,3.5,2.9,5.1,4.3c3.2,2.8,6.3,5.6,9.3,8.6c6.1,6,11.9,12.5,17.2,19.2
		c0.3,0.4,0.6,0.8,0.9,1.2c0.1,0.1,0.2,0.2,0.2,0.3c0.7,0.9,1.3,1.7,1.9,2.6c1.3,1.7,2.5,3.5,3.7,5.3c2.4,3.6,4.8,7.2,7,10.9
		c4.5,7.4,8.4,15.2,11.9,23.1c0.2,0.5,0.4,1,0.6,1.5c0,0,0,0.1,0,0.1c0,0,0,0.1,0.1,0.1c0.3,0.8,0.7,1.7,1,2.5
		c0.9,2.2,1.7,4.4,2.5,6.7c1.5,4.1,2.8,8.3,4.1,12.6c2.5,8.6,4.4,17.3,5.7,26.1c0.1,0.9,0.3,1.7,0.4,2.6c0,0.2,0,0.4,0.1,0.5
		c0.1,0.6,0.1,1.1,0.2,1.7c0.3,2.4,0.5,4.7,0.7,7.1c0.4,4.5,0.6,9,0.7,13.5c0.2,9.2-0.3,18.4-1.4,27.5c-0.1,0.6-0.1,1.1-0.2,1.7
		c0,0.1,0,0.3-0.1,0.5c-0.1,1-0.3,2.1-0.5,3.1c-0.3,2.2-0.7,4.4-1.1,6.6c-0.8,4.4-1.8,8.7-2.9,13c-2.2,8.5-4.9,16.9-8.2,25.1
		c-0.4,1-0.8,2-1.2,3c0.9-1.9-0.4,0.8-0.5,1.2c-0.9,2.2-1.9,4.3-2.9,6.4c-1.9,3.9-3.9,7.8-6,11.6c-4.2,7.5-8.9,14.8-14.1,21.8
		c-0.5,0.7-1.1,1.4-1.6,2.2c0,0.1-0.1,0.1-0.2,0.3c-0.3,0.4-0.6,0.8-0.9,1.2c-1.3,1.7-2.7,3.4-4.1,5c-2.8,3.3-5.6,6.5-8.6,9.6
		c-5.9,6.2-12.3,12.1-18.9,17.5c-0.8,0.7-1.7,1.4-2.5,2c-0.4,0.3-0.8,0.7-1.2,1c-0.1,0.1-0.2,0.1-0.2,0.2c-1.7,1.3-3.5,2.6-5.2,3.8
		c-3.5,2.5-7.1,4.9-10.8,7.2c-7.4,4.6-15,8.7-22.9,12.3c-1,0.5-2,0.9-3,1.3c-0.5,0.2-3.1,1.4-1.2,0.5c-2.1,1-4.4,1.8-6.6,2.6
		c-4.1,1.6-8.3,3-12.5,4.3c-8.4,2.6-17,4.6-25.7,6.1c-2,0.3-4.1,0.7-6.1,0.9c-0.2,0-0.4,0-0.5,0.1c-0.6,0.1-1.1,0.1-1.7,0.2
		c-1.1,0.1-2.3,0.3-3.4,0.4c-4.6,0.5-9.1,0.8-13.7,0.9c-9.2,0.3-18.4,0-27.6-0.9c-1.1-0.1-2.3-0.2-3.4-0.4c-0.6-0.1-1.1-0.1-1.7-0.2
		c-0.1,0-0.3,0-0.5-0.1c-2.1-0.3-4.3-0.6-6.4-1c-4.4-0.7-8.8-1.6-13.1-2.7c-8.6-2-17-4.6-25.3-7.8c-1.9-0.7-3.7-1.5-5.6-2.2
		c-0.1,0-0.1,0-0.1-0.1c0,0-0.1,0-0.1,0c-0.5-0.2-1-0.4-1.5-0.6c-1.2-0.5-2.3-1-3.5-1.6c-3.9-1.8-7.8-3.8-11.7-5.8
		c-7.4-4-14.6-8.5-21.5-13.4c-1.8-1.2-3.5-2.5-5.2-3.8c0,0-0.1-0.1-0.2-0.2c-0.4-0.3-0.8-0.6-1.2-1c-0.8-0.7-1.7-1.3-2.5-2
		c-3.3-2.7-6.6-5.5-9.7-8.5c-6.3-5.8-12.3-12.1-17.8-18.7c-1.4-1.6-2.7-3.3-4.1-5c-0.3-0.3-0.5-0.7-0.8-1c0,0,0,0,0-0.1
		c-0.8-1-1.5-2-2.3-3c-2.6-3.5-5-7-7.3-10.7c-4.7-7.3-8.9-14.9-12.6-22.7c-0.9-1.8-1.7-3.6-2.5-5.4c-0.2-0.5-0.4-1-0.7-1.5
		c0-0.1-0.1-0.2-0.1-0.3c0,0,0,0,0,0c-0.5-1.2-1-2.4-1.4-3.5c-1.6-4.1-3.1-8.2-4.5-12.4c-2.7-8.3-4.8-16.7-6.4-25.3
		c-0.4-2.2-0.8-4.4-1.1-6.6c-0.2-1-0.3-2.1-0.5-3.1c0-0.2,0-0.4-0.1-0.5c-0.1-0.6-0.1-1.1-0.2-1.7c-0.5-4.5-0.9-9.1-1.1-13.6
		c-0.5-10.4-0.3-20.7,0.8-31.1c0.1-1.4,0.3-2.7,0.4-4.1c0.1-0.5,0.1-0.9,0.2-1.4c0-0.1,0.2-1.2,0.2-1.3c0.4-2.7,0.8-5.3,1.3-8
		c1-5.3,2.2-10.5,3.5-15.7c1.4-5.1,2.9-10.2,4.7-15.2c0.8-2.3,1.7-4.5,2.5-6.8c0.4-1.1,0.9-2.2,1.3-3.2c0.1-0.3,0.4-1,0.4-1.1
		c0.3-0.8,0.7-1.6,1.1-2.4c4.3-9.5,9.3-18.7,14.9-27.5c2.7-4.2,5.6-8.3,8.5-12.2c0.3-0.3,0.5-0.7,0.8-1c0.1-0.1,0.1-0.2,0.2-0.3
		c0.1-0.1,0.1-0.2,0.2-0.3c0.8-1,1.6-2,2.4-3c1.6-2,3.3-4,5-5.9c2.6-2.9,3.1-7.7,0-10.6c-2.8-2.6-7.8-3.1-10.6,0
		c-29.5,33.6-47.8,75.5-52.2,120c-3.9,38.5,3.2,77.6,19.8,112.5c15.6,32.7,39.8,60.9,69.2,81.9c30,21.3,65.4,34.2,101.9,37.9
		c37.6,3.7,75.7-2.9,110-18.6c32.8-15.1,61.1-38.8,82.5-67.8c21.8-29.6,35.2-64.7,39.4-101.2C499,269.9,492.9,231.6,477.7,197.1z"/>
	<path class="st0" d="M145.5,139.2c2-0.1,3.8-0.8,5.3-2.2c3.9-3.5,7.9-6.9,12.1-10.1c10.6-8.1,22-15.2,34-21.1
		c3.2-1.6,6.5-3.1,9.8-4.5c12.6-5.2,25.7-9.2,39.1-11.9c3.7-0.7,7.4-1.3,11.2-1.9c1.3-0.2,2.7-0.3,4-0.5c1,0,2-0.2,2.9-0.6
		c0.9-0.3,1.7-0.8,2.4-1.5c1.3-1.3,2.3-3.4,2.2-5.3c-0.1-1.9-0.7-3.9-2.2-5.3c-1.4-1.3-3.4-2.4-5.3-2.2c-9.4,1-18.8,2.6-28,4.8
		c-8.5,2.1-16.8,4.7-25,7.8c-8.2,3.2-16.3,6.8-24.1,10.9c-7.2,3.8-14.2,8.1-20.9,12.7c-7.1,5-14,10.3-20.5,16.1
		c-0.7,0.7-1.5,1.3-2.2,2c-1.4,1.3-2.2,3.5-2.2,5.3c0,1.8,0.8,4,2.2,5.3C141.6,138.3,143.5,139.3,145.5,139.2z"/>
	<path class="st0" d="M240.9,410.8C240.9,410.8,240.9,410.8,240.9,410.8C240.9,410.8,240.9,410.8,240.9,410.8
		C240.9,410.8,240.9,410.8,240.9,410.8C240.9,410.8,240.9,410.8,240.9,410.8z"/>
	<path class="st0" d="M324,410.8c0-0.1,0.1-0.1,0.1-0.2C324.5,409.7,324.1,410.2,324,410.8z"/>
	<path class="st0" d="M324.1,411.1C324.1,411.2,324.1,411.1,324.1,411.1C324.1,411.1,324.1,411.1,324.1,411.1
		C324.1,411.1,324.1,411.1,324.1,411.1z"/>
	<path class="st0" d="M240.8,410.7C240.8,410.7,240.8,410.8,240.8,410.7C240.9,410.8,240.8,410.7,240.8,410.7
		C240.8,410.7,240.8,410.7,240.8,410.7z"/>
	<path class="st0" d="M240.7,410.4c0,0.1,0.1,0.1,0.1,0.2c0,0,0,0,0,0C240.8,409.9,240.6,410,240.7,410.4z"/>
	<path class="st0" d="M240.7,411c0,0,0-0.1-0.1-0.2C240.5,411,240.5,411.1,240.7,411z"/>
	<path class="st0" d="M306.2,233.2c0-0.7,0-1.3-0.1-2c-6.4-2.7-13.7-4.2-21.5-4.2c-7.8,0-15.1,1.5-21.5,4.2c0,0.7-0.1,1.3-0.1,2
		c0,17.5,9.7,31.7,21.6,31.7C296.5,264.9,306.2,250.7,306.2,233.2z"/>
	<path class="st0" d="M323.9,411c-0.1,0.1-0.2,0.3-0.4,0.5C323.7,411.3,323.8,411.2,323.9,411z"/>
	<path class="st0" d="M183.8,166.7c7.5,0,15.1,0,22.7,0h98.2h77.7c2.6,0,5.1,0,7.7,0.3c13.6,1.8,24.5,12.7,26.3,26.3
		c1.1,7.9,0.3,16.2,0.3,24.1v98.9c0,9.3,0.1,18.7,0,28c-0.1,9.5-4,18.5-11.6,24.5c-6.4,5.1-13.9,6.8-21.9,6.8h-70.1v13.9
		c11.6,3.2,26.3,8.6,25.8,22c-0.5,14.1-19,19.8-30.2,22.1c-18.2,3.8-38,3.7-56.1-0.8c-11-2.7-28.8-9.5-26.6-23.9
		c2-13.5,19.3-18.7,32.1-20.9v-8.4c0-9.7,15-9.6,15,0v14.8c0,3-2.3,6.8-5.5,7.2c-7.3,1-15.2,2.4-21.9,5.8c-1.2,0.6-2.4,1.3-3.5,2.1
		c0.1,0-1.8,1.9-1.2,1.2c0.2-0.3,0-0.1-0.2,0.1c0,0,0,0.1,0,0.2c0,0.1,0.1,0.1,0.2,0.2c0,0,0,0,0,0c0.5,0.5,1,1,1.6,1.5
		c0.1,0,1.7,1.1,2,1.3c1,0.6,2,1.1,3,1.5c5,2.2,11.4,3.6,17.1,4.5c14,2.2,29.1,1.8,42.9-1.5c5.2-1.3,9.8-2.7,14.3-5.6
		c0.2-0.1,0.3-0.2,0.4-0.2c0,0,0.1-0.1,0.1-0.1c0.4-0.4,0.8-0.7,1.2-1.1c0.1-0.1,0.2-0.3,0.3-0.4c-0.8-1-2.3-2.3-4.1-3.3
		c-2.4-1.3-4.9-2.3-7.4-3c-2.9-0.8-5.8-1.5-8.6-2.2c-3.2-0.8-5.5-4-5.5-7.2V368c0-4.1,3.4-7.5,7.5-7.5h9.1h47.4h19.3
		c4.6,0,8.9,0.1,13-2.5c8.6-5.5,7.2-15.6,7.2-24.4v-41.9v-88.1c0-2.1,0-4.2,0-6.3c-0.2-8.7-7-15.6-15.7-15.7c-5.5-0.1-11.1,0-16.6,0
		H279h-85.1c-6.6,0-14.6-1.1-20.1,3c-7.9,5.8-6.4,15.9-6.4,24.5v93.1v36.8c0,1.9,0,3.8,0,5.7c0.2,8.8,7.1,15.6,15.8,15.7
		c23.6,0.4,47.2,0,70.7,0c9.7,0,9.6,15,0,15h-10.7h-49c-3.7,0-7.5,0.1-11.2,0c-13.7-0.3-26-9.3-29.6-22.7
		c-2.2-8.2-1.1-17.9-1.1-26.2v-47.3c0-26.9-0.1-53.9,0-80.8C152.5,180.8,166,166.8,183.8,166.7z M284.6,281.2
		c30.2,0,54.7,24.5,54.7,54.7c0,2.3-1.9,4.2-4.2,4.2c-2.3,0-4.2-1.9-4.2-4.2c0-24.2-18.5-44-42.1-46.2l2.7,4.9l-4.7,3.7l15.5,40.1
		l-17.7,15.4l-17.7-15.4l15.5-40.1l-4.7-3.7l2.7-4.9c-23.6,2.2-42.2,22-42.2,46.2c0,2.3-1.9,4.2-4.2,4.2c-2.3,0-4.2-1.9-4.2-4.2
		C229.8,305.8,254.4,281.2,284.6,281.2z M254.7,233.2c0-22,13.4-40,29.9-40c16.5,0,29.9,17.9,29.9,40s-13.4,40-29.9,40
		C268.1,273.2,254.7,255.3,254.7,233.2z"/>
	<path class="st0" d="M240.9,410.8C240.8,410.8,240.8,410.8,240.9,410.8C240.8,410.7,240.8,410.8,240.9,410.8c-0.1-0.1-0.2,0-0.2,0
		c0,0.1,0,0.1,0.1,0.2c0,0,0,0,0.1,0c0.1,0,0.2,0,0.2,0C240.9,411,240.9,410.9,240.9,410.8c0.1,0.1,0.1,0.1,0.1,0.2
		C241,411,240.9,410.9,240.9,410.8C240.9,410.9,240.9,410.9,240.9,410.8C240.9,410.9,240.9,410.8,240.9,410.8z"/>
</g>
</svg>
