<?xml version="1.0" encoding="utf-8"?>
<!-- Generator: Adobe Illustrator 25.4.0, SVG Export Plug-In . SVG Version: 6.00 Build 0)  -->
<svg version="1.0" id="Layer_1" xmlns="http://www.w3.org/2000/svg" xmlns:xlink="http://www.w3.org/1999/xlink" x="0px" y="0px"
	 viewBox="0 0 566.9 566.9" style="enable-background:new 0 0 566.9 566.9;" xml:space="preserve">
<style type="text/css">
	.st0{fill:#5E15D1;}
</style>
<g>
	<path class="st0" d="M477.7,197.1c-14.5-33-37.8-61.7-66.5-83.5c-29.4-22.3-64.4-36.2-101-41c-8.9-1.2-17.8-1.7-26.8-1.7
		c-3.9,0-7.7,3.4-7.5,7.5c0.2,4.1,3.3,7.5,7.5,7.5c4.6,0,9.2,0.2,13.8,0.5c2.3,0.2,4.5,0.3,6.8,0.6c1.1,0.1,2.3,0.2,3.4,0.4
		c0.4,0,0.7,0.1,1.1,0.1c0.2,0,0.6,0.1,1,0.1c8.8,1.1,17.5,3,26.1,5.3c8.4,2.3,17,4.9,24.9,8.6c0,0,0,0,0,0c0.1,0,0.2,0.1,0.3,0.1
		c0.5,0.2,1,0.4,1.5,0.7c0.8,0.4,1.7,0.7,2.5,1.1c2.1,1,4.3,2,6.4,3c3.9,1.9,7.7,4,11.4,6.2c7.5,4.3,14.6,9.2,21.5,14.4c0,0,0,0,0,0
		c0.3,0.3,0.7,0.5,1,0.8c0.8,0.7,1.7,1.3,2.5,2c1.7,1.4,3.5,2.9,5.1,4.3c3.2,2.8,6.3,5.6,9.3,8.6c6.1,6,11.9,12.5,17.2,19.2
		c0.3,0.4,0.6,0.8,0.9,1.2c0.1,0.1,0.2,0.2,0.2,0.3c0.7,0.9,1.3,1.7,1.9,2.6c1.3,1.7,2.5,3.5,3.7,5.3c2.4,3.6,4.8,7.2,7,10.9
		c4.5,7.4,8.4,15.2,11.9,23.1c0.2,0.5,0.4,1,0.6,1.5c0,0,0,0.1,0,0.1c0,0,0,0.1,0.1,0.1c0.3,0.8,0.7,1.7,1,2.5
		c0.9,2.2,1.7,4.4,2.5,6.7c1.5,4.1,2.8,8.3,4.1,12.6c2.5,8.6,4.4,17.3,5.7,26.1c0.1,0.9,0.3,1.7,0.4,2.6c0,0.2,0,0.4,0.1,0.5
		c0.1,0.6,0.1,1.1,0.2,1.7c0.3,2.4,0.5,4.7,0.7,7.1c0.4,4.5,0.6,9,0.7,13.5c0.2,9.2-0.3,18.4-1.4,27.5c-0.1,0.6-0.1,1.1-0.2,1.7
		c0,0.1,0,0.3-0.1,0.5c-0.1,1-0.3,2.1-0.5,3.1c-0.3,2.2-0.7,4.4-1.1,6.6c-0.8,4.4-1.8,8.7-2.9,13c-2.2,8.5-4.9,16.9-8.2,25.1
		c-0.4,1-0.8,2-1.2,3c0.9-1.9-0.4,0.8-0.5,1.2c-0.9,2.2-1.9,4.3-2.9,6.4c-1.9,3.9-3.9,7.8-6,11.6c-4.2,7.5-8.9,14.8-14.1,21.8
		c-0.5,0.7-1.1,1.4-1.6,2.2c0,0.1-0.1,0.1-0.2,0.3c-0.3,0.4-0.6,0.8-0.9,1.2c-1.3,1.7-2.7,3.4-4.1,5c-2.8,3.3-5.6,6.5-8.6,9.6
		c-5.9,6.2-12.3,12.1-18.9,17.5c-0.8,0.7-1.7,1.4-2.5,2c-0.4,0.3-0.8,0.7-1.2,1c-0.1,0.1-0.2,0.1-0.2,0.2c-1.7,1.3-3.5,2.6-5.2,3.8
		c-3.5,2.5-7.1,4.9-10.8,7.2c-7.4,4.6-15,8.7-22.9,12.3c-1,0.5-2,0.9-3,1.3c-0.5,0.2-3.1,1.4-1.2,0.5c-2.1,1-4.4,1.8-6.6,2.6
		c-4.1,1.6-8.3,3-12.5,4.3c-8.4,2.6-17,4.6-25.7,6.1c-2,0.3-4.1,0.7-6.1,0.9c-0.2,0-0.4,0-0.5,0.1c-0.6,0.1-1.1,0.1-1.7,0.2
		c-1.1,0.1-2.3,0.3-3.4,0.4c-4.6,0.5-9.1,0.8-13.7,0.9c-9.2,0.3-18.4,0-27.6-0.9c-1.1-0.1-2.3-0.2-3.4-0.4c-0.6-0.1-1.1-0.1-1.7-0.2
		c-0.1,0-0.3,0-0.5-0.1c-2.1-0.3-4.3-0.6-6.4-1c-4.4-0.7-8.8-1.6-13.1-2.7c-8.6-2-17-4.6-25.3-7.8c-1.9-0.7-3.7-1.5-5.6-2.2
		c-0.1,0-0.1,0-0.1-0.1c0,0-0.1,0-0.1,0c-0.5-0.2-1-0.4-1.5-0.6c-1.2-0.5-2.3-1-3.5-1.6c-3.9-1.8-7.8-3.8-11.7-5.8
		c-7.4-4-14.6-8.5-21.5-13.4c-1.8-1.2-3.5-2.5-5.2-3.8c0,0-0.1-0.1-0.2-0.2c-0.4-0.3-0.8-0.6-1.2-1c-0.8-0.7-1.7-1.3-2.5-2
		c-3.3-2.7-6.6-5.5-9.7-8.5c-6.3-5.8-12.3-12.1-17.8-18.7c-1.4-1.6-2.7-3.3-4.1-5c-0.3-0.3-0.5-0.7-0.8-1c0,0,0,0,0,0
		c-0.8-1-1.5-2-2.3-3c-2.6-3.5-5-7-7.3-10.7c-4.7-7.3-8.9-14.9-12.6-22.7c-0.9-1.8-1.7-3.6-2.5-5.4c-0.2-0.5-0.4-1-0.7-1.5
		c0-0.1-0.1-0.2-0.1-0.3c0,0,0,0,0,0c-0.5-1.2-1-2.4-1.4-3.5c-1.6-4.1-3.1-8.2-4.5-12.4c-2.7-8.3-4.8-16.7-6.4-25.3
		c-0.4-2.2-0.8-4.4-1.1-6.6c-0.2-1-0.3-2.1-0.5-3.1c0-0.2,0-0.4-0.1-0.5c-0.1-0.6-0.1-1.1-0.2-1.7c-0.5-4.5-0.9-9.1-1.1-13.6
		c-0.5-10.4-0.3-20.7,0.8-31.1c0.1-1.4,0.3-2.7,0.4-4.1c0.1-0.5,0.1-0.9,0.2-1.4c0-0.1,0.2-1.2,0.2-1.3c0.4-2.7,0.8-5.3,1.3-8
		c1-5.3,2.2-10.5,3.5-15.7c1.4-5.1,2.9-10.2,4.7-15.2c0.8-2.3,1.7-4.5,2.5-6.8c0.4-1.1,0.9-2.2,1.3-3.2c0.1-0.3,0.4-1,0.4-1.1
		c0.3-0.8,0.7-1.6,1.1-2.4c4.3-9.5,9.3-18.7,14.9-27.5c2.7-4.2,5.6-8.3,8.5-12.2c0.3-0.3,0.5-0.7,0.8-1c0.1-0.1,0.1-0.2,0.2-0.3
		c0.1-0.1,0.1-0.2,0.2-0.3c0.8-1,1.6-2,2.4-3c1.6-2,3.3-4,5-5.9c2.6-2.9,3.1-7.7,0-10.6c-2.8-2.6-7.8-3.1-10.6,0
		c-29.5,33.6-47.8,75.5-52.2,120c-3.9,38.5,3.2,77.6,19.8,112.5c15.6,32.7,39.8,60.9,69.2,81.9c30,21.3,65.4,34.2,101.9,37.9
		c37.6,3.7,75.7-2.9,110-18.6c32.8-15.1,61.1-38.8,82.5-67.8c21.8-29.6,35.2-64.7,39.4-101.2C499,269.9,492.9,231.6,477.7,197.1z"/>
	<path class="st0" d="M145.5,139.2c2-0.1,3.8-0.8,5.3-2.2c3.9-3.5,7.9-6.9,12.1-10.1c10.6-8.1,22-15.2,34-21.1
		c3.2-1.6,6.5-3.1,9.8-4.5c12.6-5.2,25.7-9.2,39.1-11.9c3.7-0.7,7.4-1.3,11.1-1.9c1.3-0.2,2.7-0.3,4-0.5c1,0,2-0.2,2.9-0.6
		c0.9-0.3,1.7-0.8,2.4-1.5c1.3-1.3,2.3-3.4,2.2-5.3c-0.1-1.9-0.7-3.9-2.2-5.3c-1.4-1.3-3.4-2.4-5.3-2.2c-9.4,1-18.8,2.6-28,4.8
		c-8.5,2.1-16.8,4.7-25,7.8c-8.2,3.2-16.3,6.8-24.1,10.9c-7.2,3.8-14.2,8.1-20.9,12.7c-7.1,5-14,10.3-20.5,16.1
		c-0.7,0.7-1.5,1.3-2.2,2c-1.4,1.3-2.2,3.5-2.2,5.3c0,1.8,0.8,4,2.2,5.3C141.6,138.3,143.5,139.3,145.5,139.2z"/>
	<path class="st0" d="M229.1,144.5c-45.9,0-83,37.2-83,83s37.2,83,83,83s83-37.2,83-83S274.9,144.5,229.1,144.5z M255.1,201.6
		c5.7,0,10.4,4.6,10.4,10.4s-4.7,10.4-10.4,10.4c-5.7,0-10.4-4.6-10.4-10.4S249.4,201.6,255.1,201.6z M203.2,201.6
		c5.7,0,10.4,4.6,10.4,10.4s-4.7,10.4-10.4,10.4c-5.7,0-10.4-4.6-10.4-10.4S197.5,201.6,203.2,201.6z M266.7,256.9
		c-7.2,8.3-19.8,17.4-37.9,17.4c-17.6,0-30.2-9-37.4-17.4c-1.9-2.2-1.7-5.4,0.5-7.3c2.2-1.9,5.4-1.7,7.3,0.5
		c5.8,6.7,15.7,13.8,29.5,13.8c14.4,0,24.3-7.1,30.1-13.8c1.9-2.2,5.2-2.4,7.3-0.5S268.6,254.7,266.7,256.9z"/>
	<path class="st0" d="M257,338.3c0,45.9,37.2,83,83,83s83-37.2,83-83s-37.2-83-83-83c-4.8,0-9.4,0.4-14,1.2
		c-9.7,32.6-35.3,58.3-67.9,68C257.4,329,257,333.6,257,338.3z M366.1,312.4c5.7,0,10.4,4.6,10.4,10.4c0,5.7-4.7,10.4-10.4,10.4
		c-5.7,0-10.4-4.6-10.4-10.4C355.7,317,360.4,312.4,366.1,312.4z M314.2,312.4c5.7,0,10.4,4.6,10.4,10.4c0,5.7-4.7,10.4-10.4,10.4
		c-5.7,0-10.4-4.6-10.4-10.4C303.8,317,308.5,312.4,314.2,312.4z M302.4,376.4c7.2-8.3,19.8-17.4,37.9-17.4c17.6,0,30.2,9,37.4,17.4
		c1.9,2.2,1.7,5.4-0.5,7.3c-2.2,1.9-5.4,1.7-7.3-0.5c-5.8-6.7-15.7-13.8-29.5-13.8c-14.4,0-24.3,7.1-30.1,13.8
		c-1.9,2.2-5.2,2.4-7.3,0.5C300.7,381.9,300.5,378.6,302.4,376.4z"/>
</g>
</svg>
