<?xml version="1.0" encoding="utf-8"?>
<!-- Generator: Adobe Illustrator 25.4.0, SVG Export Plug-In . SVG Version: 6.00 Build 0)  -->
<svg version="1.0" id="Layer_1" xmlns="http://www.w3.org/2000/svg" xmlns:xlink="http://www.w3.org/1999/xlink" x="0px" y="0px"
	 viewBox="0 0 566.9 566.9" style="enable-background:new 0 0 566.9 566.9;" xml:space="preserve">
<style type="text/css">
	.st0{fill:#5E15D1;}
</style>
<g>
	<path class="st0" d="M283.5,85.8c4.6,0,9.2,0.2,13.8,0.5c2.3,0.2,4.5,0.3,6.8,0.6c1.1,0.1,2.3,0.2,3.4,0.4c0.4,0,0.7,0.1,1.1,0.1
		c0.4,0,3,0.4,0.8,0.1c8.8,1.1,17.7,3,26.2,5.3c8.4,2.3,17,4.9,24.9,8.6c-1.8-0.8-0.1,0,0.2,0.1c0.5,0.2,1,0.4,1.5,0.7
		c0.8,0.4,1.7,0.7,2.5,1.1c2.1,1,4.3,2,6.4,3c3.9,1.9,7.7,4,11.4,6.2c7.5,4.3,14.6,9.2,21.5,14.4c1.1,0.8-0.1-0.1-0.2-0.2
		c0.4,0.3,0.9,0.7,1.3,1c0.8,0.7,1.7,1.3,2.5,2c1.7,1.4,3.5,2.9,5.1,4.3c3.2,2.8,6.3,5.6,9.3,8.6c6.1,6,11.9,12.5,17.2,19.2
		c0.3,0.4,0.7,0.8,1,1.3c-1.2-1.6-0.1-0.1,0.1,0.2c0.7,0.9,1.3,1.7,1.9,2.6c1.3,1.7,2.5,3.5,3.7,5.3c2.4,3.6,4.8,7.2,7,10.9
		c4.5,7.4,8.4,15.2,11.9,23.1c0.2,0.5,0.4,1,0.6,1.5c0.7,1.7-0.6-1.5,0.1,0.2c0.3,0.8,0.7,1.7,1,2.5c0.9,2.2,1.7,4.4,2.5,6.7
		c1.5,4.1,2.8,8.3,4.1,12.6c2.5,8.6,4.4,17.3,5.7,26.1c0.1,0.9,0.3,1.9,0.4,2.8c-0.2-2.1,0-0.1,0,0.2c0.1,0.6,0.1,1.1,0.2,1.7
		c0.3,2.4,0.5,4.7,0.7,7.1c0.4,4.5,0.6,9,0.7,13.5c0.2,9.2-0.3,18.4-1.4,27.5c-0.1,0.6-0.1,1.1-0.2,1.7c0,0.4-0.3,2.3,0,0.2
		c-0.1,1.1-0.3,2.2-0.5,3.3c-0.3,2.2-0.7,4.4-1.1,6.6c-0.8,4.4-1.8,8.7-2.9,13c-2.2,8.5-4.9,16.9-8.2,25.1c-0.4,1-0.8,2-1.2,3
		c0.9-1.9-0.4,0.8-0.5,1.2c-0.9,2.2-1.9,4.3-2.9,6.4c-1.9,3.9-3.9,7.8-6,11.6c-4.2,7.5-8.9,14.8-14.1,21.8c-0.5,0.7-1.1,1.4-1.6,2.2
		c-0.2,0.3-1.3,1.8-0.1,0.2c-0.3,0.4-0.7,0.9-1,1.3c-1.3,1.7-2.7,3.4-4.1,5c-2.8,3.3-5.6,6.5-8.6,9.6c-5.9,6.2-12.3,12.1-18.9,17.5
		c-0.8,0.7-1.7,1.4-2.5,2c-0.4,0.3-0.8,0.7-1.3,1c1.6-1.2,0.1-0.1-0.2,0.1c-1.7,1.3-3.5,2.6-5.2,3.8c-3.5,2.5-7.1,4.9-10.8,7.2
		c-7.4,4.6-15,8.7-22.9,12.3c-1,0.5-2,0.9-3,1.3c-0.5,0.2-3.1,1.4-1.2,0.5c-2.1,1-4.4,1.8-6.6,2.6c-4.1,1.6-8.3,3-12.5,4.3
		c-8.4,2.6-17,4.6-25.7,6.1c-2.1,0.4-4.3,0.7-6.4,1c2.1-0.2,0.1,0-0.2,0c-0.6,0.1-1.1,0.1-1.7,0.2c-1.1,0.1-2.3,0.3-3.4,0.4
		c-4.6,0.5-9.1,0.8-13.7,0.9c-9.2,0.3-18.4,0-27.6-0.9c-1.1-0.1-2.3-0.2-3.4-0.4c-0.6-0.1-1.1-0.1-1.7-0.2c-0.4,0-2.3-0.3-0.3,0
		c-2.2-0.3-4.5-0.6-6.7-1c-4.4-0.7-8.8-1.6-13.1-2.7c-8.6-2-17-4.6-25.3-7.8c-1.9-0.7-3.7-1.5-5.6-2.2c-1.7-0.7,1.5,0.7-0.2-0.1
		c-0.5-0.2-1-0.4-1.5-0.6c-1.2-0.5-2.3-1-3.5-1.6c-3.9-1.8-7.8-3.8-11.7-5.8c-7.4-4-14.6-8.5-21.5-13.4c-1.8-1.2-3.5-2.5-5.2-3.8
		c-0.3-0.2-1.8-1.3-0.2-0.1c-0.4-0.3-0.8-0.7-1.3-1c-0.8-0.7-1.7-1.3-2.5-2c-3.3-2.7-6.6-5.5-9.7-8.5c-6.3-5.8-12.3-12.1-17.8-18.7
		c-1.4-1.6-2.7-3.3-4.1-5c-0.3-0.4-0.5-0.7-0.8-1.1c-0.7-0.9,1.1,1.4,0,0c-0.8-1-1.5-2-2.3-3c-2.6-3.5-5-7-7.3-10.7
		c-4.7-7.3-8.9-14.9-12.6-22.7c-0.9-1.8-1.7-3.6-2.5-5.4c-0.2-0.5-0.4-1-0.7-1.5c-0.1-0.3-0.9-2-0.1-0.2c-0.5-1.2-1-2.4-1.4-3.5
		c-1.6-4.1-3.1-8.2-4.5-12.4c-2.7-8.3-4.8-16.7-6.4-25.3c-0.4-2.2-0.8-4.4-1.1-6.6c-0.2-1.1-0.3-2.2-0.5-3.3c0.2,2.1,0,0.1,0-0.2
		c-0.1-0.6-0.1-1.1-0.2-1.7c-0.5-4.5-0.9-9.1-1.1-13.6c-0.5-10.4-0.3-20.7,0.8-31.1c0.1-1.4,0.3-2.7,0.4-4.1c0.1-0.7,0.2-1.4,0.3-2
		c-0.2,1.7,0.1-0.5,0.1-0.7c0.4-2.7,0.8-5.3,1.3-8c1-5.3,2.2-10.5,3.5-15.7c1.4-5.1,2.9-10.2,4.7-15.2c0.8-2.3,1.7-4.5,2.5-6.8
		c0.5-1.2,1-2.4,1.5-3.7c-0.6,1.6,0.2-0.4,0.3-0.6c0.3-0.8,0.7-1.6,1.1-2.4c4.3-9.5,9.3-18.7,14.9-27.5c2.7-4.2,5.6-8.3,8.5-12.2
		c0.3-0.3,0.5-0.7,0.8-1c1.3-1.7-0.9,1.2,0.4-0.5c0.8-1,1.6-2,2.4-3c1.6-2,3.3-4,5-5.9c2.6-2.9,3.1-7.7,0-10.6
		c-2.8-2.6-7.8-3.1-10.6,0c-29.5,33.6-47.8,75.5-52.2,120c-3.9,38.5,3.2,77.6,19.8,112.5c15.6,32.7,39.8,60.9,69.2,81.9
		c30,21.3,65.4,34.2,101.9,37.9c37.6,3.7,75.7-2.9,110-18.6c32.8-15.1,61.1-38.8,82.5-67.8c21.8-29.6,35.2-64.7,39.4-101.2
		c4.4-37.5-1.7-75.8-16.9-110.4c-14.5-33-37.8-61.7-66.5-83.5c-29.4-22.3-64.4-36.2-101-41c-8.9-1.2-17.8-1.7-26.8-1.7
		c-3.9,0-7.7,3.4-7.5,7.5C276.1,82.4,279.3,85.8,283.5,85.8"/>
	<path class="st0" d="M150.7,137c4.1-3.7,8.3-7.2,12.6-10.6c-0.5,0.4-1,0.8-1.5,1.2c10.9-8.4,22.6-15.7,35-21.8
		c3.5-1.7,7-3.3,10.6-4.9c-0.6,0.3-1.2,0.5-1.8,0.8c12.9-5.4,26.3-9.6,40.1-12.3c4-0.8,8-1.4,12-2c-0.7,0.1-1.3,0.2-2,0.3
		c1.7-0.2,3.4-0.4,5.2-0.6c1,0,2-0.2,2.9-0.6c0.9-0.3,1.7-0.8,2.4-1.5c1.3-1.3,2.3-3.4,2.2-5.3c-0.1-1.9-0.7-3.9-2.2-5.3
		c-1.4-1.3-3.4-2.4-5.3-2.2c-9.4,1-18.8,2.6-28,4.8c-8.5,2.1-16.8,4.7-25,7.8c-8.2,3.2-16.3,6.8-24.1,10.9
		c-7.2,3.8-14.2,8.1-20.9,12.7c-7.1,5-14,10.3-20.5,16.1c-0.7,0.7-1.5,1.3-2.2,2c-1.4,1.3-2.2,3.5-2.2,5.3c0,1.8,0.8,4,2.2,5.3
		c1.4,1.3,3.3,2.3,5.3,2.2C147.5,139.1,149.2,138.4,150.7,137"/>
	<path class="st0" d="M289.1,254.8l-6.5,4.8c-5.2,3.9-11.6,6.1-18.2,6.1h-11.1c-5,0-9.1-4.1-9.1-9.1c0-0.7,0.1-1.4,0.2-2
		c-3.6-1.2-6.3-4.6-6.3-8.6c0-1.7,0.5-3.3,1.4-4.7c-4.2-0.8-7.4-4.5-7.4-8.9c0-2.4,0.9-4.5,2.4-6.1c-4.7-0.3-8.5-4.2-8.5-9
		c0-5,4.1-9.1,9.1-9.1h27.7c-4.3-7.2-6.5-15.3-6.5-18.2c0-4.5,3.5-9.1,9.4-9.1c12,0,5,14.4,20.5,26.8l3.1,2.5
		c2.2,1.8,3.4,4.4,3.4,7.1l0,30.3C292.7,250.4,291.4,253.1,289.1,254.8z M323,259.3c0,3.3-2.7,5.9-6.1,5.9h-12.1
		c-3.4,0.3-6.1-2.2-6.1-5.7v-42.4c0-3.3,2.7-5.9,6.1-5.9H317c3.3,0,6.1,2.7,6.1,5.9V259.3z M364.5,358.5c0.1,0.3,0.4,2.2,1.5,7.8
		c0.2,1.2,0.4,2.3,0.6,3.2c8.1,0.7,15,6.6,16.8,14.7l0.8,3.8l1.8-0.4c1-0.2,2,0.4,2.2,1.4l0.8,3.7c0.2,1-0.4,2-1.4,2.2l-5.5,1.2
		l2.7,12.6c0.4,2-0.9,4-2.9,4.5c-2,0.4-4-0.9-4.5-2.9l-2.7-12.6l-14.7,3.2l2.7,12.6c0.4,2-0.9,4-2.9,4.5c-2,0.4-4-0.9-4.5-2.9
		l-2.7-12.6l-5.5,1.2c-1,0.2-2-0.5-2.2-1.4l-0.8-3.7c-0.2-1,0.4-2,1.4-2.2l1.8-0.4l-0.8-3.8c-1.7-8,1.9-16,8.7-20.1
		c-0.2-0.9-0.4-2.1-0.7-3.6c-0.6-3-1.4-7-1.5-7.5c-6.1-27.7-1.3-56.3,13.5-80.3c10.6-17.1,15.3-28.8,15.2-53c0-11-2.2-21.4-6.5-30.7
		c-6.9-15-18.6-27.3-34.8-36.6c-14.6-8.4-32.5-13.9-51.7-16c-17.7-1.9-35.2,0.9-50.7,8.2c-14.8,6.9-24.4,16-35.5,33.4
		c-2.3,3.6-9,18-10.3,22.6c-3.2,11.2-2.9,21.5-2.8,24.9c0.3,9.7,0.3,19.7-1.9,26.9c-2,6.3-8.7,13.8-14.5,20.5
		c-2.3,2.6-5.3,6-6.5,7.7c1,1.6,5.4,3.2,7.8,4c2.6,0.9,4.9,1.7,6.7,3.1c4.8,3.7,3.5,10.2,2.4,15.5c-0.2,0.9-0.4,2-0.6,3
		c0,0,0.1,0,0.1,0c2.5,0.4,6.2,1.1,8.2,4.5c1.7,2.9,1.4,5.3,0.9,6.9c-1,2.9-3.3,4.3-5.3,5.2c0.4,0.2,0.7,0.4,1,0.5
		c3.7,1.9,10.6,5.5,9.6,14.5c-0.2,2.4-0.8,4.2-1.3,5.6c-0.5,1.5-0.8,2.4-0.7,3.8c0.1,2.5,0.9,4.2,2.5,5.4c4.7,3.6,15.7,4,29.4,1
		c0,0,0.1,0,0.1,0c26.1-5.1,43.5-24.2,44.1-48.7c0.3-10.3,0-34.3,0-34.6c0-3.2,2.5-5.8,5.7-5.8c0,0,0,0,0.1,0c3.1,0,5.7,2.5,5.8,5.7
		c0,1,0.3,24.5,0,35c-0.4,15.2-6,28.9-16.1,39.7c-9.5,10.1-22.4,17-37.3,20c-22.4,4.8-33.5,0.9-38.8-3.2c-4.3-3.4-6.8-8.2-7-14.1
		c-0.1-3.4,0.6-5.8,1.2-7.7c0.4-1.2,0.7-2.1,0.8-3.3c0.1-1,0.1-1.2-3.5-3.1c-3.1-1.6-7.4-3.8-8.8-8.9c-0.9-3.3-0.2-6.4,2.1-8.7
		c-1.5-0.8-2.9-2-3.8-4c-1.5-3.3-0.7-7.1,0.2-11.2c0.3-1.3,0.7-3.2,0.8-4.5c-0.7-0.3-1.7-0.6-2.4-0.9c-5.8-2.1-15.5-5.5-15.7-15.4
		c-0.1-3.9,2.7-7.2,9.6-14.9c4.6-5.2,10.9-12.3,12.2-16.3c1.9-5.9,1.6-16.7,1.4-23.1c-0.3-10.4,0.8-19.7,3.3-28.4
		c1.7-5.8,8.8-21.1,11.7-25.6c12.3-19.2,23.6-29.7,40.3-37.6c17.4-8.2,37.1-11.4,56.9-9.2c20.8,2.3,40.2,8.3,56.2,17.4
		c18.4,10.5,31.7,24.6,39.6,41.8c4.9,10.8,7.5,22.7,7.5,35.4c0.1,26.9-5.4,40.5-16.9,59.1C363.3,308.2,359,333.7,364.5,358.5z"/>
</g>
</svg>
