<?xml version="1.0" encoding="utf-8"?>
<!-- Generator: Adobe Illustrator 25.4.0, SVG Export Plug-In . SVG Version: 6.00 Build 0)  -->
<svg version="1.0" id="Layer_1" xmlns="http://www.w3.org/2000/svg" xmlns:xlink="http://www.w3.org/1999/xlink" x="0px" y="0px"
	 viewBox="0 0 566.9 566.9" style="enable-background:new 0 0 566.9 566.9;" xml:space="preserve">
<style type="text/css">
	.st0{fill:#5E15D1;}
</style>
<g>
	<path class="st0" d="M283.6,46.2c5.5,0,11,0.2,16.6,0.6c2.8,0.2,5.4,0.4,8.2,0.7c1.3,0.1,2.8,0.2,4.1,0.5c0.5,0,0.8,0.1,1.3,0.1
		s3.6,0.5,1,0.1c10.6,1.3,21.2,3.6,31.4,6.4c10.1,2.8,20.4,5.9,29.9,10.3c-2.2-1-0.1,0,0.2,0.1c0.6,0.2,1.2,0.5,1.8,0.8
		c1,0.5,2,0.8,3,1.3c2.5,1.2,5.2,2.4,7.7,3.6c4.7,2.3,9.2,4.8,13.7,7.4c9,5.2,17.5,11,25.8,17.3c1.3,1-0.1-0.1-0.2-0.2
		c0.5,0.4,1.1,0.8,1.6,1.2c1,0.8,2,1.6,3,2.4c2,1.7,4.2,3.5,6.1,5.2c3.8,3.4,7.6,6.7,11.2,10.3c7.3,7.2,14.3,15,20.6,23
		c0.4,0.5,0.8,1,1.2,1.6c-1.4-1.9-0.1-0.1,0.1,0.2c0.8,1.1,1.6,2,2.3,3.1c1.6,2,3,4.2,4.4,6.4c2.9,4.3,5.8,8.6,8.4,13.1
		c5.4,8.9,10.1,18.2,14.3,27.7c0.2,0.6,0.5,1.2,0.7,1.8c0.8,2-0.7-1.8,0.1,0.2c0.4,1,0.8,2,1.2,3c1.1,2.6,2,5.3,3,8
		c1.8,4.9,3.4,10,4.9,15.1c3,10.3,5.3,20.8,6.8,31.3c0.1,1.1,0.4,2.3,0.5,3.4c-0.2-2.5,0-0.1,0,0.2c0.1,0.7,0.1,1.3,0.2,2
		c0.4,2.9,0.6,5.6,0.8,8.5c0.5,5.4,0.7,10.8,0.8,16.2c0.2,11-0.4,22.1-1.7,33c-0.1,0.7-0.1,1.3-0.2,2c0,0.5-0.4,2.8,0,0.2
		c-0.1,1.3-0.4,2.6-0.6,4c-0.4,2.6-0.8,5.3-1.3,7.9c-1,5.3-2.2,10.4-3.5,15.6c-2.6,10.2-5.9,20.3-9.8,30.1c-0.5,1.2-1,2.4-1.4,3.6
		c1.1-2.3-0.5,1-0.6,1.4c-1.1,2.6-2.3,5.2-3.5,7.7c-2.3,4.7-4.7,9.4-7.2,13.9c-5,9-10.7,17.8-16.9,26.2c-0.6,0.8-1.3,1.7-1.9,2.6
		c-0.2,0.4-1.6,2.2-0.1,0.2c-0.4,0.5-0.8,1.1-1.2,1.6c-1.6,2-3.2,4.1-4.9,6c-3.4,4-6.7,7.8-10.3,11.5c-7.1,7.4-14.8,14.5-22.7,21
		c-1,0.8-2,1.7-3,2.4c-0.5,0.4-1,0.8-1.6,1.2c1.9-1.4,0.1-0.1-0.2,0.1c-2,1.6-4.2,3.1-6.2,4.6c-4.2,3-8.5,5.9-13,8.6
		c-8.9,5.5-18,10.4-27.5,14.8c-1.2,0.6-2.4,1.1-3.6,1.6c-0.6,0.2-3.7,1.7-1.4,0.6c-2.5,1.2-5.3,2.2-7.9,3.1c-4.9,1.9-10,3.6-15,5.2
		c-10.1,3.1-20.4,5.5-30.8,7.3c-2.5,0.5-5.2,0.8-7.7,1.2c2.5-0.2,0.1,0-0.2,0c-0.7,0.1-1.3,0.1-2,0.2c-1.3,0.1-2.8,0.4-4.1,0.5
		c-5.5,0.6-10.9,1-16.4,1.1c-11,0.4-22.1,0-33.1-1.1c-1.3-0.1-2.8-0.2-4.1-0.5c-0.7-0.1-1.3-0.1-2-0.2c-0.5,0-2.8-0.4-0.4,0
		c-2.6-0.4-5.4-0.7-8-1.2c-5.3-0.8-10.6-1.9-15.7-3.2c-10.3-2.4-20.4-5.5-30.4-9.4c-2.3-0.8-4.4-1.8-6.7-2.6c-2-0.8,1.8,0.8-0.2-0.1
		c-0.6-0.2-1.2-0.5-1.8-0.7c-1.4-0.6-2.8-1.2-4.2-1.9c-4.7-2.2-9.4-4.6-14-7c-8.9-4.8-17.5-10.2-25.8-16.1c-2.2-1.4-4.2-3-6.2-4.6
		c-0.4-0.2-2.2-1.6-0.2-0.1c-0.5-0.4-1-0.8-1.6-1.2c-1-0.8-2-1.6-3-2.4c-4-3.2-7.9-6.6-11.6-10.2c-7.6-7-14.8-14.5-21.4-22.4
		c-1.7-1.9-3.2-4-4.9-6c-0.4-0.5-0.6-0.8-1-1.3c-0.8-1.1,1.3,1.7,0,0c-1-1.2-1.8-2.4-2.8-3.6c-3.1-4.2-6-8.4-8.8-12.8
		C78,403,73,393.8,68.6,384.5c-1.1-2.2-2-4.3-3-6.5c-0.2-0.6-0.5-1.2-0.8-1.8c-0.1-0.4-1.1-2.4-0.1-0.2c-0.6-1.4-1.2-2.9-1.7-4.2
		c-1.9-4.9-3.7-9.8-5.4-14.9c-3.2-10-5.8-20-7.7-30.4c-0.5-2.6-1-5.3-1.3-7.9c-0.2-1.3-0.4-2.6-0.6-4c0.2,2.5,0,0.1,0-0.2
		c-0.1-0.7-0.1-1.3-0.2-2c-0.6-5.4-1.1-10.9-1.3-16.3c-0.6-12.5-0.4-24.8,1-37.3c0.1-1.7,0.4-3.2,0.5-4.9c0.1-0.8,0.2-1.7,0.4-2.4
		c-0.2,2,0.1-0.6,0.1-0.8c0.5-3.2,1-6.4,1.6-9.6c1.2-6.4,2.6-12.6,4.2-18.8c1.7-6.1,3.5-12.2,5.6-18.2c1-2.8,2-5.4,3-8.2
		c0.6-1.4,1.2-2.9,1.8-4.4c-0.7,1.9,0.2-0.5,0.4-0.7c0.4-1,0.8-1.9,1.3-2.9c5.2-11.4,11.2-22.4,17.9-33c3.2-5,6.7-10,10.2-14.6
		c0.4-0.4,0.6-0.8,1-1.2c1.6-2-1.1,1.4,0.5-0.6c1-1.2,1.9-2.4,2.9-3.6c1.9-2.4,4-4.8,6-7.1c3.1-3.5,3.7-9.2,0-12.7
		c-3.4-3.1-9.4-3.7-12.7,0c-35.4,40.3-57.4,90.6-62.6,144c-4.7,46.2,3.8,93.1,23.8,135c18.7,39.2,47.8,73.1,83,98.3
		c36,25.6,78.5,41,122.3,45.5c45.1,4.4,90.8-3.5,132-22.3c39.4-18.1,73.3-46.6,99-81.4c26.2-35.5,42.2-77.6,47.3-121.4
		c5.3-45-2-91-20.3-132.5c-17.4-39.6-45.4-74-79.8-100.2c-35.3-26.8-77.3-43.4-121.2-49.2c-10.7-1.4-21.4-2-32.2-2
		c-4.7,0-9.2,4.1-9,9C274.7,42.2,278.5,46.2,283.6,46.2"/>
	<path class="st0" d="M124.2,107.7c4.9-4.4,10-8.6,15.1-12.7c-0.6,0.5-1.2,1-1.8,1.4c13.1-10.1,27.1-18.8,42-26.2
		c4.2-2,8.4-4,12.7-5.9c-0.7,0.4-1.4,0.6-2.2,1c15.5-6.5,31.6-11.5,48.1-14.8c4.8-1,9.6-1.7,14.4-2.4c-0.8,0.1-1.6,0.2-2.4,0.4
		c2-0.2,4.1-0.5,6.2-0.7c1.2,0,2.4-0.2,3.5-0.7c1.1-0.4,2-1,2.9-1.8c1.6-1.6,2.8-4.1,2.6-6.4c-0.1-2.3-0.8-4.7-2.6-6.4
		c-1.7-1.6-4.1-2.9-6.4-2.6c-11.3,1.2-22.6,3.1-33.6,5.8c-10.2,2.5-20.2,5.6-30,9.4c-9.8,3.8-19.6,8.2-28.9,13.1
		c-8.6,4.6-17,9.7-25.1,15.2c-8.5,6-16.8,12.4-24.6,19.3c-0.8,0.8-1.8,1.6-2.6,2.4c-1.7,1.6-2.6,4.2-2.6,6.4c0,2.2,1,4.8,2.6,6.4
		c1.7,1.6,4,2.8,6.4,2.6C120.4,110.2,122.4,109.4,124.2,107.7"/>
	<path class="st0" d="M284.8,64.5c-120.6,0-218.3,97.8-218.3,218.3S164.3,501,284.8,501C405.4,501,503,403.2,503,282.7
		S405.4,64.5,284.8,64.5z M290.3,249l-7.8,5.8c-6.2,4.7-13.9,7.3-21.8,7.3h-13.3c-6,0-10.9-4.9-10.9-10.9c0-0.8,0.1-1.7,0.2-2.4
		c-4.3-1.4-7.6-5.5-7.6-10.3c0-2,0.6-4,1.7-5.6c-5-1-8.9-5.4-8.9-10.7c0-2.9,1.1-5.4,2.9-7.3c-5.6-0.4-10.2-5-10.2-10.8
		c0-6,4.9-10.9,10.9-10.9h33.2c-5.2-8.6-7.8-18.4-7.8-21.8c0-5.4,4.2-10.9,11.3-10.9c14.4,0,6,17.3,24.6,32.2l3.7,3
		c2.6,2.2,4.1,5.3,4.1,8.5v36.4C294.6,243.7,293.1,247,290.3,249z M331,254.4c0,4-3.2,7.1-7.3,7.1h-14.5c-4.1,0.4-7.3-2.6-7.3-6.8
		v-50.9c0-4,3.2-7.1,7.3-7.1h14.6c4,0,7.3,3.2,7.3,7.1v50.6H331z M380.8,373.5c0.1,0.4,0.5,2.6,1.8,9.4c0.2,1.4,0.5,2.8,0.7,3.8
		c9.7,0.8,18,7.9,20.2,17.6l1,4.6l2.2-0.5c1.2-0.2,2.4,0.5,2.6,1.7l1,4.4c0.2,1.2-0.5,2.4-1.7,2.6l-6.6,1.4l3.2,15.1
		c0.5,2.4-1.1,4.8-3.5,5.4c-2.4,0.5-4.8-1.1-5.4-3.5l-3.2-15.1l-17.6,3.8l3.2,15.1c0.5,2.4-1.1,4.8-3.5,5.4
		c-2.4,0.5-4.8-1.1-5.4-3.5l-3.2-15.1l-6.6,1.4c-1.2,0.2-2.4-0.6-2.6-1.7l-1-4.4c-0.2-1.2,0.5-2.4,1.7-2.6l2.2-0.5l-1-4.6
		c-2-9.6,2.3-19.2,10.4-24.1c-0.2-1.1-0.5-2.5-0.8-4.3c-0.7-3.6-1.7-8.4-1.8-9c-7.3-33.2-1.6-67.6,16.2-96.3
		c12.7-20.5,18.4-34.6,18.2-63.6c0-13.2-2.6-25.7-7.8-36.8c-8.3-18-22.3-32.8-41.8-43.9c-17.5-10.1-39-16.7-62-19.2
		c-21.2-2.3-42.2,1.1-60.8,9.8c-17.8,8.3-29.3,19.2-42.6,40.1c-2.8,4.3-10.8,21.6-12.4,27.1c-3.8,13.4-3.5,25.8-3.4,29.9
		c0.4,11.6,0.4,23.6-2.3,32.3c-2.4,7.6-10.4,16.6-17.4,24.6c-2.8,3.1-6.4,7.2-7.8,9.2c1.2,1.9,6.5,3.8,9.4,4.8c3.1,1.1,5.9,2,8,3.7
		c5.8,4.4,4.2,12.2,2.9,18.6c-0.2,1.1-0.5,2.4-0.7,3.6h0.1c3,0.5,7.4,1.3,9.8,5.4c2,3.5,1.7,6.4,1.1,8.3c-1.2,3.5-4,5.2-6.4,6.2
		c0.5,0.2,0.8,0.5,1.2,0.6c4.4,2.3,12.7,6.6,11.5,17.4c-0.2,2.9-1,5-1.6,6.7c-0.6,1.8-1,2.9-0.8,4.6c0.1,3,1.1,5,3,6.5
		c5.6,4.3,18.8,4.8,35.3,1.2h0.1c31.3-6.1,52.2-29,52.9-58.4c0.4-12.4,0-41.2,0-41.5c0-3.8,3-7,6.8-7c0,0,0,0,0.1,0
		c3.7,0,6.8,3,7,6.8c0,1.2,0.4,29.4,0,42c-0.5,18.2-7.2,34.7-19.3,47.6c-11.4,12.1-26.9,20.4-44.8,24c-26.9,5.8-40.2,1.1-46.6-3.8
		c-5.2-4.1-8.2-9.8-8.4-16.9c-0.1-4.1,0.7-7,1.4-9.2c0.5-1.4,0.8-2.5,1-4c0.1-1.2,0.1-1.4-4.2-3.7c-3.7-1.9-8.9-4.6-10.6-10.7
		c-1.1-4-0.2-7.7,2.5-10.4c-1.8-1-3.5-2.4-4.6-4.8c-1.8-4-0.8-8.5,0.2-13.4c0.4-1.6,0.8-3.8,1-5.4c-0.8-0.4-2-0.7-2.9-1.1
		c-7-2.5-18.6-6.6-18.8-18.5c-0.1-4.7,3.2-8.6,11.5-17.9c5.5-6.2,13.1-14.8,14.6-19.6c2.3-7.1,1.9-20,1.7-27.7
		c-0.4-12.5,1-23.6,4-34.1c2-7,10.6-25.3,14-30.7c14.8-23,28.3-35.6,48.4-45.1c20.9-9.8,44.5-13.7,68.3-11c25,2.8,48.2,10,67.4,20.9
		c22.1,12.6,38,29.5,47.5,50.2c5.9,13,9,27.2,9,42.5c0.1,32.3-6.5,48.6-20.3,70.9C379.3,313.1,374.2,343.7,380.8,373.5z"/>
</g>
</svg>
