<?xml version="1.0" encoding="utf-8"?>
<!-- Generator: Adobe Illustrator 25.4.0, SVG Export Plug-In . SVG Version: 6.00 Build 0)  -->
<svg version="1.0" id="Layer_1" xmlns="http://www.w3.org/2000/svg" xmlns:xlink="http://www.w3.org/1999/xlink" x="0px" y="0px"
	 viewBox="0 0 566.9 566.9" style="enable-background:new 0 0 566.9 566.9;" xml:space="preserve">
<style type="text/css">
	.st0{fill:#5E15D1;}
</style>
<g>
	<path class="st0" d="M516.5,179.8c-17.4-39.6-45.3-74-79.8-100.2c-35.3-26.8-77.3-43.4-121.2-49.2c-10.7-1.4-21.4-2-32.1-2
		c-4.7,0-9.2,4.1-9,9s4,9,9,9c5.5,0,11,0.2,16.6,0.6c2.8,0.2,5.4,0.4,8.2,0.7c1.3,0.1,2.8,0.2,4.1,0.5c0.5,0,0.8,0.1,1.3,0.1
		c0.2,0,0.7,0.1,1.2,0.1c10.6,1.3,21,3.6,31.3,6.4c10.1,2.8,20.4,5.9,29.9,10.3l0,0c0.1,0,0.2,0.1,0.4,0.1c0.6,0.2,1.2,0.5,1.8,0.8
		c1,0.5,2,0.8,3,1.3c2.5,1.2,5.2,2.4,7.7,3.6c4.7,2.3,9.2,4.8,13.7,7.4c9,5.2,17.5,11,25.8,17.3l0,0c0.4,0.4,0.8,0.6,1.2,1
		c1,0.8,2,1.6,3,2.4c2,1.7,4.2,3.5,6.1,5.2c3.8,3.4,7.6,6.7,11.2,10.3c7.3,7.2,14.3,15,20.6,23c0.4,0.5,0.7,1,1.1,1.4
		c0.1,0.1,0.2,0.2,0.2,0.4c0.8,1.1,1.6,2,2.3,3.1c1.6,2,3,4.2,4.4,6.4c2.9,4.3,5.8,8.6,8.4,13.1c5.4,8.9,10.1,18.2,14.3,27.7
		c0.2,0.6,0.5,1.2,0.7,1.8v0.1c0,0,0,0.1,0.1,0.1c0.4,1,0.8,2,1.2,3c1.1,2.6,2,5.3,3,8c1.8,4.9,3.4,10,4.9,15.1
		c3,10.3,5.3,20.8,6.8,31.3c0.1,1.1,0.4,2,0.5,3.1c0,0.2,0,0.5,0.1,0.6c0.1,0.7,0.1,1.3,0.2,2c0.4,2.9,0.6,5.6,0.8,8.5
		c0.5,5.4,0.7,10.8,0.8,16.2c0.2,11-0.4,22.1-1.7,33c-0.1,0.7-0.1,1.3-0.2,2c0,0.1,0,0.4-0.1,0.6c-0.1,1.2-0.4,2.5-0.6,3.7
		c-0.4,2.6-0.8,5.3-1.3,7.9c-1,5.3-2.2,10.4-3.5,15.6c-2.6,10.2-5.9,20.3-9.8,30.1c-0.5,1.2-1,2.4-1.4,3.6c1.1-2.3-0.5,1-0.6,1.4
		c-1.1,2.6-2.3,5.2-3.5,7.7c-2.3,4.7-4.7,9.4-7.2,13.9c-5,9-10.7,17.8-16.9,26.2c-0.6,0.8-1.3,1.7-1.9,2.6c0,0.1-0.1,0.1-0.2,0.4
		c-0.4,0.5-0.7,1-1.1,1.4c-1.6,2-3.2,4.1-4.9,6c-3.4,4-6.7,7.8-10.3,11.5c-7.1,7.4-14.8,14.5-22.7,21c-1,0.8-2,1.7-3,2.4
		c-0.5,0.4-1,0.8-1.4,1.2c-0.1,0.1-0.2,0.1-0.2,0.2c-2,1.6-4.2,3.1-6.2,4.6c-4.2,3-8.5,5.9-13,8.6c-8.9,5.5-18,10.4-27.5,14.8
		c-1.2,0.6-2.4,1.1-3.6,1.6c-0.6,0.2-3.7,1.7-1.4,0.6c-2.5,1.2-5.3,2.2-7.9,3.1c-4.9,1.9-10,3.6-15,5.2c-10.1,3.1-20.4,5.5-30.8,7.3
		c-2.4,0.4-4.9,0.8-7.3,1.1c-0.2,0-0.5,0-0.6,0.1c-0.7,0.1-1.3,0.1-2,0.2c-1.3,0.1-2.8,0.4-4.1,0.5c-5.5,0.6-10.9,1-16.4,1.1
		c-11,0.4-22.1,0-33.1-1.1c-1.3-0.1-2.8-0.2-4.1-0.5c-0.7-0.1-1.3-0.1-2-0.2c-0.1,0-0.4,0-0.6-0.1c-2.5-0.4-5.2-0.7-7.7-1.2
		c-5.3-0.8-10.6-1.9-15.7-3.2c-10.3-2.4-20.4-5.5-30.3-9.4c-2.3-0.8-4.4-1.8-6.7-2.6c-0.1,0-0.1,0-0.1-0.1h-0.1
		c-0.6-0.2-1.2-0.5-1.8-0.7c-1.4-0.6-2.8-1.2-4.2-1.9c-4.7-2.2-9.4-4.6-14-7c-8.9-4.8-17.5-10.2-25.8-16.1c-2.2-1.4-4.2-3-6.2-4.6
		c0,0-0.1-0.1-0.2-0.2c-0.5-0.4-1-0.7-1.4-1.2c-1-0.8-2-1.6-3-2.4c-4-3.2-7.9-6.6-11.6-10.2c-7.6-7-14.8-14.5-21.4-22.4
		c-1.7-1.9-3.2-4-4.9-6c-0.4-0.4-0.6-0.8-1-1.2l0,0c-1-1.2-1.8-2.4-2.8-3.6c-3.1-4.2-6-8.4-8.8-12.8c-5.6-8.8-10.7-17.9-15.1-27.2
		c-1.1-2.2-2-4.3-3-6.5c-0.2-0.6-0.5-1.2-0.8-1.8c0-0.1-0.1-0.2-0.1-0.4l0,0c-0.6-1.4-1.2-2.9-1.7-4.2c-1.9-4.9-3.7-9.8-5.4-14.9
		c-3.2-10-5.8-20-7.7-30.3c-0.5-2.6-1-5.3-1.3-7.9c-0.2-1.2-0.4-2.5-0.6-3.7c0-0.2,0-0.5-0.1-0.6c-0.1-0.7-0.1-1.3-0.2-2
		c-0.6-5.4-1.1-10.9-1.3-16.3c-0.6-12.5-0.4-24.8,1-37.3c0.1-1.7,0.4-3.2,0.5-4.9c0.1-0.6,0.1-1.1,0.2-1.7c0-0.1,0.2-1.4,0.2-1.6
		c0.5-3.2,1-6.4,1.6-9.6c1.2-6.4,2.6-12.6,4.2-18.8c1.7-6.1,3.5-12.2,5.6-18.2c1-2.8,2-5.4,3-8.2c0.5-1.3,1.1-2.6,1.6-3.8
		c0.1-0.4,0.5-1.2,0.5-1.3c0.4-1,0.8-1.9,1.3-2.9c5.2-11.4,11.2-22.4,17.9-33c3.2-5,6.7-10,10.2-14.6c0.4-0.4,0.6-0.8,1-1.2
		c0.1-0.1,0.1-0.2,0.2-0.4c0.1-0.1,0.1-0.2,0.2-0.4c1-1.2,1.9-2.4,2.9-3.6c1.9-2.4,4-4.8,6-7.1c3.1-3.5,3.7-9.2,0-12.7
		c-3.4-3.1-9.4-3.7-12.7,0c-35.4,40.3-57.3,90.6-62.6,143.9c-4.7,46.2,3.8,93.1,23.8,135c18.7,39.2,47.7,73.1,83,98.2
		c36,25.6,78.5,41,122.2,45.5c45.1,4.4,90.8-3.5,132-22.3c39.3-18.1,73.3-46.5,99-81.3c26.2-35.5,42.2-77.6,47.3-121.4
		C542.1,267.2,534.7,221.2,516.5,179.8z"/>
	<path class="st0" d="M118,110.4c2.4-0.1,4.6-1,6.4-2.6c4.7-4.2,9.5-8.3,14.5-12.1c12.7-9.7,26.4-18.2,40.8-25.3
		c3.8-1.9,7.8-3.7,11.8-5.4c15.1-6.2,30.8-11,46.9-14.3c4.4-0.8,8.9-1.6,13.3-2.3c1.6-0.2,3.2-0.4,4.8-0.6c1.2,0,2.4-0.2,3.5-0.7
		c1.1-0.4,2-1,2.9-1.8c1.6-1.6,2.8-4.1,2.6-6.4c-0.1-2.3-0.8-4.7-2.6-6.4c-1.7-1.6-4.1-2.9-6.4-2.6c-11.3,1.2-22.6,3.1-33.6,5.8
		c-10.2,2.5-20.2,5.6-30,9.4c-9.8,3.8-19.6,8.2-28.9,13.1c-8.6,4.6-17,9.7-25.1,15.2c-8.5,6-16.8,12.4-24.6,19.3
		c-0.8,0.8-1.8,1.6-2.6,2.4c-1.7,1.6-2.6,4.2-2.6,6.4c0,2.2,1,4.8,2.6,6.4C113.3,109.3,115.6,110.5,118,110.4z"/>
	<path class="st0" d="M382.6,343c6.8,0,12.5-5.5,12.5-12.5c0-6.8-5.6-12.5-12.5-12.5c-6.8,0-12.5,5.5-12.5,12.5S375.8,343,382.6,343
		z"/>
	<path class="st0" d="M217.9,272.3c21.8,0,36.8-10.8,45.5-20.9c2.3-2.6,2-6.5-0.6-8.8c-2.6-2.3-6.5-2-8.8,0.6
		c-7,8-18.8,16.6-36.1,16.6c-16.6,0-28.4-8.5-35.4-16.6c-2.3-2.6-6.2-2.9-8.8-0.6c-2.6,2.3-2.9,6.2-0.6,8.8
		C181.7,261.5,196.8,272.3,217.9,272.3z"/>
	<path class="st0" d="M187.2,210.2c6.8,0,12.5-5.5,12.5-12.5c0-7-5.6-12.5-12.5-12.5s-12.5,5.5-12.5,12.5
		C174.8,204.7,180.4,210.2,187.2,210.2z"/>
	<path class="st0" d="M249.5,210.2c6.8,0,12.5-5.5,12.5-12.5c0-7-5.6-12.5-12.5-12.5c-6.8,0-12.5,5.5-12.5,12.5
		C237,204.7,242.6,210.2,249.5,210.2z"/>
	<path class="st0" d="M315.6,403.1c7-8,18.8-16.6,36.1-16.6c16.6,0,28.4,8.5,35.4,16.6c2.3,2.6,6.2,2.9,8.8,0.6
		c2.6-2.3,2.9-6.2,0.6-8.8c-8.6-10-23.8-20.9-44.9-20.9c-21.8,0-36.8,10.8-45.5,20.9c-2.3,2.6-2,6.5,0.6,8.8
		C309.5,406,313.4,405.7,315.6,403.1z"/>
	<path class="st0" d="M320.4,343c6.8,0,12.5-5.5,12.5-12.5c0-6.8-5.6-12.5-12.5-12.5c-6.8,0-12.5,5.5-12.5,12.5
		C307.9,337.5,313.5,343,320.4,343z"/>
	<path class="st0" d="M66.6,282.8c0,120.6,97.8,218.2,218.2,218.2S503,403.2,503,282.8S405.3,64.6,284.8,64.6S66.6,162.2,66.6,282.8
		z M351.3,249.7c55.1,0,99.6,44.6,99.6,99.6s-44.6,99.6-99.6,99.6s-99.6-44.6-99.6-99.6c0-5.6,0.5-11.2,1.4-16.6
		c39.1-11.8,69.8-42.6,81.5-81.6C340.1,250.1,345.7,249.7,351.3,249.7z M218.3,116.7c55.1,0,99.6,44.6,99.6,99.6
		s-44.6,99.6-99.6,99.6s-99.6-44.6-99.6-99.6S163.2,116.7,218.3,116.7z"/>
</g>
</svg>
