<svg xmlns="http://www.w3.org/2000/svg" viewBox="0 0 2568.28 1424.24"><defs><style>.cls-1{fill:#fff;}</style></defs><g id="Capa_2" data-name="Capa 2"><g id="Capa_1-2" data-name="Capa 1"><path class="cls-1" d="M475.76,913.09A122.37,122.37,0,0,1,523.92,961q17.52,30.94,17.5,71.41t-17.5,71.63a121.75,121.75,0,0,1-48.16,48.17q-30.69,17-69.64,17-27.47,0-50.16-9.48a96.53,96.53,0,0,1-38.21-28.47v34.44h-59.4V795.28h62.41V931.56a104.48,104.48,0,0,1,37.69-26.43q21.71-9,47.67-9,39,0,69.64,17m-20,179.73q22.21-23,22.23-60.39T455.79,972q-22.2-22.92-56.66-22.93-22.45,0-40.43,10.22a73.7,73.7,0,0,0-28.45,29.22q-10.5,19-10.49,43.93t10.49,43.93a74,74,0,0,0,28.45,29.2q18,10.23,40.43,10.24,34.46,0,56.66-23"/><path class="cls-1" d="M789.29,924.33q31.19,28.21,31.2,85.11v156.27H761.56v-32.45q-11.47,17.48-32.69,26.72t-51.17,9.23q-30,0-52.41-10.24t-34.69-28.45q-12.26-18.23-12.23-41.19,0-35.92,26.7-57.66t84.14-21.73h68.87v-4q0-28-16.73-42.94t-49.68-15a143.15,143.15,0,0,0-44.18,7q-21.68,7-36.68,19.46l-24.46-45.42q21-16,50.42-24.47a225,225,0,0,1,62.41-8.48q58.91,0,90.11,28.2M732.37,1113a58.37,58.37,0,0,0,25.71-30.7v-31h-64.4q-53.92,0-53.92,35.46,0,17,13.47,27t37.45,10q23.45,0,41.69-10.74"/><path class="cls-1" d="M1132.5,925.58Q1162.95,955,1163,1013v152.74h-62.41V1020.94q0-34.94-16.48-52.69t-46.92-17.7q-34.43,0-54.42,20.71t-20,59.67v134.76H900.35V899.13h59.42v34.44a97.3,97.3,0,0,1,38.94-28q23.47-9.5,52.91-9.5,50.42,0,80.88,29.46"/><polygon class="cls-1" points="1351.17 1051.39 1304.73 1095.32 1304.73 1165.71 1242.35 1165.71 1242.35 795.29 1304.73 795.29 1304.73 1018.92 1434.04 899.12 1508.91 899.12 1397.62 1010.96 1519.4 1165.71 1443.54 1165.71 1351.17 1051.39"/><path class="cls-1" d="M1560.34,844.45a36.82,36.82,0,0,1,0-53.41q11.48-10.72,28.46-10.74t28.47,10.22a33.11,33.11,0,0,1,11.47,25.71q0,16.49-11.24,27.72t-28.7,11.24q-17,0-28.46-10.74m-3,54.65h62.41v266.61h-62.41Z"/><path class="cls-1" d="M1933.76,925.58q30.45,29.46,30.46,87.37v152.74h-62.41V1020.94q0-34.94-16.48-52.69t-46.92-17.7q-34.42,0-54.43,20.71t-20,59.67v134.76h-62.41V899.13H1761v34.44a97.3,97.3,0,0,1,38.94-28q23.47-9.5,52.91-9.5,50.41,0,80.88,29.46"/><path class="cls-1" d="M2310.68,899.13v226.16q0,140.76-143.79,140.78a266.89,266.89,0,0,1-72.88-9.75q-34.43-9.73-56.91-28.2l28-46.94q17.5,14.46,44.2,23.22a172.91,172.91,0,0,0,54.16,8.73q43.93,0,64.4-20t20.46-60.92v-14a102.09,102.09,0,0,1-38.94,26.45q-22.95,9-50.4,9-38,0-68.67-16.21a122,122,0,0,1-48.41-45.7q-17.73-29.44-17.73-67.4t17.73-67.13a120.77,120.77,0,0,1,48.41-45.2q30.69-16,68.67-16,28.92,0,52.66,9.5a97.23,97.23,0,0,1,39.71,28.94V899.13Zm-84.12,180.46q22.71-21.21,22.72-55.17,0-33.44-22.72-54.4t-58.16-21q-35.94,0-58.65,21t-22.72,54.4q0,34,22.72,55.17t58.65,21.23q35.43,0,58.16-21.23"/><polygon class="cls-1" points="132.57 1291.73 320.49 1291.73 320.49 1424.24 0 1424.24 0 1100.38 132.57 1100.38 132.57 1291.73"/><rect class="cls-1" x="258.35" y="250.78" width="130.56" height="461.81"/><polygon class="cls-1" points="790.61 496.86 586.72 250.75 479.21 250.75 479.21 712.59 607.16 712.59 607.16 466.48 811.03 712.59 918.61 712.59 918.61 250.75 790.61 250.75 790.61 496.86"/><polygon class="cls-1" points="1570.84 527.22 1775.99 527.22 1775.99 429.57 1570.84 429.57 1570.84 351.71 1803.71 351.71 1803.71 250.76 1441.52 250.76 1441.52 712.6 1812.29 712.6 1812.29 611.64 1570.84 611.64 1570.84 527.22"/><path class="cls-1" d="M2210.82,567.44c29.08-14.06,51.33-33.57,67-58.37s23.43-54,23.43-87.43q0-52.09-25.07-90.73t-71.3-59.36q-46.24-20.78-108.89-20.77H1885V712.59h130.58V589.87h71.3l83.78,122.72h139.87Zm-62-96q-20.52,17.5-60.74,17.5h-72.55V353.7h72.55q40.23,0,60.74,17.79c13.58,11.84,20.43,28.63,20.43,50.15s-6.85,38.11-20.43,49.78"/><polygon class="cls-1" points="1084.26 250.74 1084.26 250.76 978.98 250.76 978.98 354.36 1120.88 354.36 1120.88 712.59 1252.29 712.59 1252.29 353.7 1392.67 353.7 1392.67 250.74 1311.85 250.74 1084.26 250.74"/><polygon class="cls-1" points="2435.72 132.51 2247.79 132.51 2247.79 0 2568.28 0 2568.28 323.85 2435.72 323.85 2435.72 132.51"/></g></g></svg>