<?xml version="1.0" encoding="utf-8"?>
<!-- Generator: Adobe Illustrator 25.0.1, SVG Export Plug-In . SVG Version: 6.00 Build 0)  -->
<svg version="1.1" id="Layer_1" xmlns="http://www.w3.org/2000/svg" xmlns:xlink="http://www.w3.org/1999/xlink" x="0px" y="0px"
	 viewBox="0 0 595.28 184.05" style="enable-background:new 0 0 595.28 184.05;" xml:space="preserve">
<style type="text/css">
	.st0{fill:#80AD65;}
	.st1{fill:#737377;}
</style>
<path class="st0" d="M554.22,170.19c-3.9-3.91-5.86-8.72-5.86-14.43c0-5.53,1.99-10.27,5.99-14.19c3.99-3.91,8.76-5.86,14.31-5.86
	c5.54,0,10.3,1.95,14.3,5.86c3.99,3.92,5.99,8.65,5.99,14.19c0,5.7-1.95,10.52-5.86,14.43c-3.92,3.91-8.73,5.88-14.43,5.88
	C562.95,176.07,558.14,174.11,554.22,170.19 M552.02,107.35c0,4.89,1.51,8.89,4.52,11.98c3.02,3.1,6.97,4.65,11.87,4.65
	c4.89,0,8.87-1.55,11.98-4.65c3.09-3.09,4.65-7.09,4.65-11.98V20.06c0-4.89-1.55-8.85-4.65-11.86c-3.1-3.01-7.09-4.52-11.98-4.52
	c-4.74,0-8.65,1.55-11.74,4.64c-3.1,3.11-4.65,7.01-4.65,11.75V107.35z"/>
<path class="st1" d="M525.3,7.78c-3.12-3.04-7-4.57-11.93-4.57c-4.93,0-7.65,1.52-10.69,4.57c-3.04,3.05-3.29,7.03-3.29,11.96V126
	c0,5.58-3.13,10.31-6.98,14.17c-3.87,3.87-9.19,5.79-14.78,5.79c-5.59,0-10.64-1.93-14.51-5.79c-3.86-3.86-6.13-8.59-6.13-14.17
	V19.74c0-4.93-1.48-8.91-4.52-11.96c-3.04-3.04-7.01-4.57-11.95-4.57c-4.92,0-6.98,1.52-10.1,4.57c-3.13,3.05-2.71,7.03-2.71,11.96
	v119.08c-9.09,4.78-11.01,7.15-17.25,7.15c-5.59,0-11.4-1.93-15.26-5.79c-3.87-3.86-6.87-8.59-6.87-14.17V19.74
	c0-4.93-1.43-8.91-4.47-11.96c-3.03-3.04-6.98-4.57-11.91-4.57c-4.92,0-9.04,1.52-12.17,4.57c-3.12,3.05-4.76,7.03-4.76,11.96v21.42
	c9.09,14.99,13.87,32.41,13.87,51.01c0,17.33-4.32,33.64-12,47.91c2.25,9.07,6.76,17.05,13.6,23.9
	c10.2,10.19,22.86,15.28,37.99,15.28c12.97,0,24.41-4.19,34.27-12.57c9.86,8.38,21.28,12.57,34.27,12.57
	c14.96,0,27.28-5.13,37.55-15.41c10.27-10.27,15.1-22.89,15.1-37.84V19.74C529.67,14.8,528.42,10.82,525.3,7.78"/>
<path class="st1" d="M177.23,8.02c-3.12-3.04-7.4-4.56-12.32-4.56c-4.94,0-9.08,1.52-12.12,4.56c-3.04,3.04-4.72,7.02-4.72,11.96
	v106.27c0,5.58-1.9,10.31-5.75,14.17c-3.87,3.86-8.57,5.8-14.15,5.8c-5.59,0-10.58-1.93-14.43-5.8c-3.86-3.86-6.05-8.59-6.05-14.17
	V19.98c0-4.93-1.26-8.92-4.29-11.96c-3.05-3.04-6.9-4.56-11.83-4.56c-4.92,0-8.16,1.52-11.28,4.56c-3.13,3.04-3.89,7.02-3.89,11.96
	v119.08c-3.03,4.77-9.78,7.16-16.02,7.16c-5.59,0-12-1.93-15.86-5.8c-3.87-3.86-7.49-8.59-7.49-14.17V19.98
	c0-4.93-0.19-8.92-3.23-11.96c-3.04-3.04-6.37-4.56-11.3-4.56c-4.93,0-8.95,1.52-12.07,4.56c-3.13,3.04-4.69,7.02-4.69,11.96v106.27
	c0,15.12,5.42,27.77,15.61,37.96c10.19,10.2,23.01,15.29,38.13,15.29c12.99,0,24.5-4.18,34.37-12.57
	c9.86,8.39,21.31,12.57,34.31,12.57c14.95,0,27.59-5.13,37.86-15.41c6.36-6.36,10.75-13.62,13.17-21.77
	c-8.44-14.79-12.8-31.9-12.8-50.15c0-19.81,5.92-38.28,16.02-53.9V19.98C182.39,15.05,180.35,11.06,177.23,8.02"/>
<path class="st0" d="M320.17,92.45c0-1.8-1.47-3.26-3.26-3.26c-1.81,0-3.27,1.46-3.27,3.26c0,21.15-20.48,38.35-45.64,38.35
	c-25.17,0-45.64-17.2-45.64-38.35c0-1.8-1.47-3.26-3.27-3.26c-1.8,0-3.27,1.46-3.27,3.26c0,1.67,0.11,3.32,0.31,4.95
	c-0.07,0.28-0.12,0.57-0.12,0.87c0,12.05,5.47,23.34,15.4,31.79c9.79,8.33,22.77,12.92,36.56,12.92H268
	c13.79,0,26.78-4.58,36.56-12.92c9.94-8.45,15.41-19.74,15.41-31.79c0-0.31-0.05-0.59-0.12-0.87
	C320.06,95.77,320.17,94.12,320.17,92.45"/>
<path class="st0" d="M267.25,5.65c-48.35,0-87.55,39.2-87.55,87.55c0,48.35,39.2,87.55,87.55,87.55c48.36,0,87.56-39.2,87.56-87.55
	C354.81,44.84,315.61,5.65,267.25,5.65 M331.39,108.2c-0.33,0-0.65-0.04-0.96-0.12c-6.53,28.29-31.89,49.38-62.16,49.38
	c-30.28,0-55.65-21.11-62.17-49.41c-0.36,0.09-0.72,0.15-1.09,0.15c-3.8,0-6.87-5.42-6.87-12.11c0-6.69,3.07-12.12,6.87-12.12
	c0.06,0,0.13,0.01,0.19,0.02c4.66-30.64,31.12-54.12,63.06-54.12s58.4,23.47,63.07,54.11c0.02,0,0.04-0.01,0.06-0.01
	c3.78,0,6.86,5.43,6.86,12.12C338.25,102.77,335.17,108.2,331.39,108.2"/>
</svg>
